<svg xmlns="http://www.w3.org/2000/svg" xmlns:xlink="http://www.w3.org/1999/xlink" width="146" height="50" viewBox="0 0 146 50">
  <defs>
    <filter id="Rectangle_12" x="0" y="0" width="146" height="50" filterUnits="userSpaceOnUse">
      <feOffset dx="2" dy="3" input="SourceAlpha"/>
      <feGaussianBlur stdDeviation="1.5" result="blur"/>
      <feFlood flood-opacity="0.078"/>
      <feComposite operator="in" in2="blur"/>
      <feComposite in="SourceGraphic"/>
    </filter>
  </defs>
  <g id="hedpay-apple-store-footer" transform="translate(2.5 1.341)">
    <g id="Groupe_287" data-name="Groupe 287" transform="translate(0 0.158)">
      <g transform="matrix(1, 0, 0, 1, -2.5, -1.5)" filter="url(#Rectangle_12)">
        <rect id="Rectangle_12-2" data-name="Rectangle 12" width="137" height="41" rx="6" transform="translate(2.5 1.5)" fill="#fff"/>
      </g>
      <path id="FontAwsome_apple_" data-name="FontAwsome (apple)" d="M20.986,45.3a5.286,5.286,0,0,1,2.7-4.766,5.739,5.739,0,0,0-4.572-2.507c-1.916-.157-4.01,1.164-4.777,1.164-.81,0-2.666-1.107-4.124-1.107C7.2,38.138,4,40.589,4,45.574a14.53,14.53,0,0,0,.777,4.564c.691,2.063,3.185,7.122,5.786,7.037,1.36-.034,2.321-1.006,4.091-1.006,1.716,0,2.607,1.006,4.124,1.006,2.623-.039,4.879-4.637,5.538-6.706a5.615,5.615,0,0,1-3.33-5.165Zm-3.055-9.229A5.447,5.447,0,0,0,19.226,32a5.65,5.65,0,0,0-3.665,1.962A5.511,5.511,0,0,0,14.18,38,4.471,4.471,0,0,0,17.931,36.075Z" transform="translate(6.443 -24.069)" fill="#2dccd3"/>
      <text id="Apple_Store" data-name="Apple Store" transform="translate(39 31)" fill="#706c68" font-size="16" font-family="Roboto-Regular, Roboto"><tspan x="0" y="0">Apple Store</tspan></text>
      <text id="Download_on" data-name="Download on" transform="translate(39 14)" fill="#706c68" font-size="9" font-family="Roboto-Regular, Roboto"><tspan x="0" y="0">Download on</tspan></text>
    </g>
  </g>
</svg>
