<svg xmlns="http://www.w3.org/2000/svg" xmlns:xlink="http://www.w3.org/1999/xlink" width="181" height="59" viewBox="0 0 181 59">
  <defs>
    <filter id="Rectangle_17" x="0" y="0" width="181" height="59" filterUnits="userSpaceOnUse">
      <feOffset dx="2" dy="3" input="SourceAlpha"/>
      <feGaussianBlur stdDeviation="1.5" result="blur"/>
      <feFlood flood-opacity="0.078"/>
      <feComposite operator="in" in2="blur"/>
      <feComposite in="SourceGraphic"/>
    </filter>
  </defs>
  <g id="hedpay-apple-store-download-app" transform="translate(2.5 1.5)">
    <g transform="matrix(1, 0, 0, 1, -2.5, -1.5)" filter="url(#Rectangle_17)">
      <rect id="Rectangle_17-2" data-name="Rectangle 17" width="172" height="50" rx="6" transform="translate(2.5 1.5)" fill="#00263f"/>
    </g>
    <path id="FontAwsome_apple_" data-name="FontAwsome (apple)" d="M25.292,48.014a6.316,6.316,0,0,1,3.383-5.737,7.269,7.269,0,0,0-5.731-3.018c-2.4-.189-5.027,1.4-5.988,1.4-1.015,0-3.342-1.333-5.169-1.333C8.012,39.388,4,42.338,4,48.339a16.863,16.863,0,0,0,.974,5.494c.866,2.483,3.992,8.572,7.253,8.471,1.7-.041,2.909-1.211,5.128-1.211,2.151,0,3.268,1.211,5.169,1.211,3.288-.047,6.116-5.582,6.942-8.071a6.707,6.707,0,0,1-4.174-6.218ZM21.462,36.905A6.372,6.372,0,0,0,23.086,32a7.174,7.174,0,0,0-4.594,2.361,6.472,6.472,0,0,0-1.732,4.865A5.682,5.682,0,0,0,21.462,36.905Z" transform="translate(9.334 -22.182)" fill="#f7f8f9"/>
    <text id="Apple_Store" data-name="Apple Store" transform="translate(50 36)" fill="#f7f8f9" font-size="19" font-family="Roboto-Regular, Roboto"><tspan x="0" y="0">Apple Store</tspan></text>
    <text id="Download_on" data-name="Download on" transform="translate(50 17)" fill="#f7f8f9" font-size="11" font-family="Roboto-Regular, Roboto"><tspan x="0" y="0">Download on</tspan></text>
  </g>
</svg>
