<svg xmlns="http://www.w3.org/2000/svg" width="51.436" height="18" viewBox="0 0 51.436 18">
  <g id="Groupe_8422" data-name="Groupe 8422" transform="translate(-1156 -1406.544)">
    <g id="arrow-right-square" transform="translate(1189.436 1406.544)">
      <path id="Tracé_3381" data-name="Tracé 3381" d="M15.75,1.125H2.25A1.125,1.125,0,0,0,1.125,2.25v13.5A1.125,1.125,0,0,0,2.25,16.875h13.5a1.125,1.125,0,0,0,1.125-1.125V2.25A1.125,1.125,0,0,0,15.75,1.125ZM2.25,0A2.25,2.25,0,0,0,0,2.25v13.5A2.25,2.25,0,0,0,2.25,18h13.5A2.25,2.25,0,0,0,18,15.75V2.25A2.25,2.25,0,0,0,15.75,0Z" transform="translate(0)" fill="#002554" fill-rule="evenodd"/>
      <path id="Tracé_3382" data-name="Tracé 3382" d="M17.034,17.649a.549.549,0,0,1,0-.777l2.906-2.9-2.906-2.905a.55.55,0,1,1,.777-.777L21.1,13.578a.549.549,0,0,1,0,.777l-3.294,3.294a.549.549,0,0,1-.777,0Z" transform="translate(-8.368 -4.967)" fill="#002554" fill-rule="evenodd"/>
      <path id="Tracé_3383" data-name="Tracé 3383" d="M10.125,17.424a.549.549,0,0,1,.549-.549h5.49a.549.549,0,0,1,0,1.1h-5.49A.549.549,0,0,1,10.125,17.424Z" transform="translate(-4.989 -8.424)" fill="#002554" fill-rule="evenodd"/>
    </g>
    <g id="dash-square" transform="translate(1156 1406.544)">
      <path id="Tracé_3384" data-name="Tracé 3384" d="M15.75,1.125H2.25A1.125,1.125,0,0,0,1.125,2.25v13.5A1.125,1.125,0,0,0,2.25,16.875h13.5a1.125,1.125,0,0,0,1.125-1.125V2.25A1.125,1.125,0,0,0,15.75,1.125ZM2.25,0A2.25,2.25,0,0,0,0,2.25v13.5A2.25,2.25,0,0,0,2.25,18h13.5A2.25,2.25,0,0,0,18,15.75V2.25A2.25,2.25,0,0,0,15.75,0Z" fill="#f02d3a" fill-rule="evenodd"/>
      <path id="Tracé_3385" data-name="Tracé 3385" d="M7.875,17.431a.562.562,0,0,1,.567-.556h9.075a.557.557,0,1,1,0,1.113H8.442A.562.562,0,0,1,7.875,17.431Z" transform="translate(-3.98 -8.431)" fill="#f02d3a" fill-rule="evenodd"/>
    </g>
  </g>
</svg>
