<svg xmlns="http://www.w3.org/2000/svg" width="21.333" height="16" viewBox="0 0 21.333 16">
  <path id="FontAwsome_envelope_" data-name="FontAwsome (envelope)" d="M19.333,64H2a2,2,0,0,0-2,2V78a2,2,0,0,0,2,2H19.333a2,2,0,0,0,2-2V66A2,2,0,0,0,19.333,64Zm0,2v1.7c-.934.761-2.424,1.944-5.608,4.437-.7.552-2.092,1.878-3.059,1.863-.967.016-2.357-1.311-3.059-1.863C4.424,69.644,2.934,68.461,2,67.7V66ZM2,78V70.267c.955.76,2.309,1.828,4.372,3.444.911.717,2.506,2.3,4.294,2.29,1.78.01,3.355-1.55,4.294-2.289,2.064-1.616,3.418-2.683,4.373-3.444V78Z" transform="translate(0 -64)" fill="#2dccd3"/>
</svg>
