<svg class="svg-icon" style="width: 12px; height: 16px;vertical-align: middle;fill: currentColor;overflow: hidden;" viewBox="0 0 1024 1024" version="1.1" xmlns="http://www.w3.org/2000/svg"><path d="M882 210L686.2 14c-9-9-21.2-14-34-14H640v256h256v-12.2c0-12.6-5-24.8-14-33.8z m-306 62V0H176C149.4 0 128 21.4 128 48v928c0 26.6 21.4 48 48 48h672c26.6 0 48-21.4 48-48V320H624c-26.4 0-48-21.6-48-48zM256 144c0-8.84 7.16-16 16-16h160c8.84 0 16 7.16 16 16v32c0 8.84-7.16 16-16 16H272c-8.84 0-16-7.16-16-16V144z m0 160v-32c0-8.84 7.16-16 16-16h160c8.84 0 16 7.16 16 16v32c0 8.84-7.16 16-16 16H272c-8.84 0-16-7.16-16-16z m288 527.76V880c0 8.84-7.16 16-16 16h-32c-8.84 0-16-7.16-16-16v-48.58c-22.58-1.16-44.54-9.04-62.74-22.7-7.8-5.86-8.2-17.54-1.14-24.28l23.5-22.42c5.54-5.28 13.78-5.52 20.26-1.46 7.74 4.84 16.52 7.44 25.64 7.44h56.22c13 0 23.6-11.84 23.6-26.38 0-11.9-7.22-22.38-17.54-25.46l-90-27c-37.18-11.16-63.16-46.84-63.16-86.78 0-49.04 38.1-88.88 85.34-90.14V464c0-8.84 7.16-16 16-16h32c8.84 0 16 7.16 16 16v48.58c22.58 1.16 44.54 9.02 62.74 22.7 7.8 5.86 8.2 17.54 1.14 24.28l-23.5 22.42c-5.54 5.28-13.78 5.52-20.26 1.46-7.74-4.86-16.52-7.44-25.64-7.44h-56.22c-13 0-23.6 11.84-23.6 26.38 0 11.9 7.22 22.38 17.54 25.46l90 27c37.18 11.16 63.16 46.84 63.16 86.78 0 49.06-38.1 88.88-85.34 90.14z" fill="#fff" /></svg>