<svg xmlns="http://www.w3.org/2000/svg" width="16" height="16" viewBox="0 0 16 16">
  <path id="FontAwsome_fingerprint-My_identity_" data-name="FontAwsome (fingerprint-My identity)" d="M8.013,7.686a.75.75,0,0,0-.75.75A22.851,22.851,0,0,1,6.4,15.047a.75.75,0,1,0,1.444.405,24.186,24.186,0,0,0,.921-7.016.75.75,0,0,0-.75-.75ZM7.986,5.132A3.126,3.126,0,0,0,4.762,8.291a20.5,20.5,0,0,1-.418,4.455.75.75,0,0,0,1.469.3,22,22,0,0,0,.449-4.782,1.628,1.628,0,0,1,1.7-1.636,1.809,1.809,0,0,1,1.8,1.733,25.123,25.123,0,0,1-.332,4.486.75.75,0,1,0,1.479.244,26.656,26.656,0,0,0,.352-4.753,3.32,3.32,0,0,0-3.278-3.21ZM4.527,4.514a.751.751,0,0,0-1.055.109,5.42,5.42,0,0,0-1.211,3.5,18.148,18.148,0,0,1-.285,3.5.75.75,0,1,0,1.477.267A19.656,19.656,0,0,0,3.761,8.1a3.862,3.862,0,0,1,.875-2.53.75.75,0,0,0-.109-1.055ZM7.948,2.566a5.586,5.586,0,0,0-1.431.155.75.75,0,1,0,.346,1.46,4.485,4.485,0,0,1,1.063-.115,4.374,4.374,0,0,1,4.34,4.206,27.534,27.534,0,0,1-.174,3.551.75.75,0,1,0,1.49.171,29.034,29.034,0,0,0,.184-3.745A5.885,5.885,0,0,0,7.948,2.566Zm7.877,3.8a.75.75,0,1,0-1.465.323,7.793,7.793,0,0,1,.147,1.925.75.75,0,0,0,.744.756h.006a.75.75,0,0,0,.75-.744,9.286,9.286,0,0,0-.182-2.261ZM14.571,3.527A8.313,8.313,0,0,0,7.909,0a7.827,7.827,0,0,0-5.7,2.279,7.453,7.453,0,0,0-2.2,5.428l0,.671a.75.75,0,0,0,.728.772H.76a.75.75,0,0,0,.749-.728l0-.739A5.962,5.962,0,0,1,3.273,3.34,6.333,6.333,0,0,1,7.888,1.5a6.808,6.808,0,0,1,5.457,2.887.75.75,0,1,0,1.227-.862Z" transform="translate(-0.009 0)" fill="#fff"/>
</svg>
