<svg xmlns="http://www.w3.org/2000/svg" width="16.001" height="16" viewBox="0 0 16.001 16">
  <path id="FontAwsome_paper-plane_" data-name="FontAwsome (paper-plane)" d="M13.792.227l-13,7.5A1.5,1.5,0,0,0,.97,10.408l3.572,1.478v2.638a1.5,1.5,0,0,0,2.706.894l1.369-1.847,3.5,1.444a1.5,1.5,0,0,0,2.056-1.159l1.856-12.1A1.5,1.5,0,0,0,13.792.227Zm-7.75,14.3V12.505l1.144.472Zm6.644-.9L7.88,11.643l4.381-6.322a.5.5,0,0,0-.741-.663L4.911,10.418,1.542,9.024l13-7.5Z" transform="translate(-0.043 -0.025)" fill="#bac4ce"/>
</svg>
