<svg xmlns="http://www.w3.org/2000/svg" xmlns:xlink="http://www.w3.org/1999/xlink" width="181" height="59" viewBox="0 0 181 59">
  <defs>
    <filter id="Rectangle_16" x="0" y="0" width="181" height="59" filterUnits="userSpaceOnUse">
      <feOffset dx="2" dy="3" input="SourceAlpha"/>
      <feGaussianBlur stdDeviation="1.5" result="blur"/>
      <feFlood flood-opacity="0.078"/>
      <feComposite operator="in" in2="blur"/>
      <feComposite in="SourceGraphic"/>
    </filter>
  </defs>
  <g id="hedpay-google-play-download-app" transform="translate(2.86 1.63)">
    <g transform="matrix(1, 0, 0, 1, -2.86, -1.63)" filter="url(#Rectangle_16)">
      <rect id="Rectangle_16-2" data-name="Rectangle 16" width="172" height="50" rx="6" transform="translate(2.5 1.5)" fill="#00263f"/>
    </g>
    <path id="FontAwsome_google-play_" data-name="FontAwsome (google-play)" d="M43.01,13.831,29.981.767l16.576,9.516ZM26.581,0A2.3,2.3,0,0,0,25.3,2.084V28.135a2.3,2.3,0,0,0,1.281,2.084L41.729,15.107Zm25.1,13.318L48.2,11.3l-3.878,3.808L48.2,18.92l3.548-2.013A2.368,2.368,0,0,0,51.682,13.318Zm-21.7,16.14,16.576-9.516L43.01,16.393Z" transform="translate(-12.28 9.818)" fill="#f7f8f9"/>
    <text id="Google_Play" data-name="Google Play" transform="translate(99.64 35.87)" fill="#f7f8f9" font-size="19" font-family="Roboto-Regular, Roboto"><tspan x="-50" y="0">Google Play</tspan></text>
    <text id="Download_on" data-name="Download on" transform="translate(49.64 16.87)" fill="#f7f8f9" font-size="11" font-family="Roboto-Regular, Roboto"><tspan x="0" y="0">Download on</tspan></text>
  </g>
</svg>
