<svg xmlns="http://www.w3.org/2000/svg" xmlns:xlink="http://www.w3.org/1999/xlink" width="146" height="50" viewBox="0 0 146 50">
  <defs>
    <filter id="Rectangle_11" x="0" y="0" width="146" height="50" filterUnits="userSpaceOnUse">
      <feOffset dx="2" dy="3" input="SourceAlpha"/>
      <feGaussianBlur stdDeviation="1.5" result="blur"/>
      <feFlood flood-opacity="0.078"/>
      <feComposite operator="in" in2="blur"/>
      <feComposite in="SourceGraphic"/>
    </filter>
  </defs>
  <g id="hedpay-google-play-page-footer" transform="translate(2.5 1.342)">
    <g id="Groupe_286" data-name="Groupe 286" transform="translate(0 0.158)">
      <g transform="matrix(1, 0, 0, 1, -2.5, -1.5)" filter="url(#Rectangle_11)">
        <rect id="Rectangle_11-2" data-name="Rectangle 11" width="137" height="41" rx="6" transform="translate(2.5 1.5)" fill="#fff"/>
      </g>
      <path id="FontAwsome_google-play_" data-name="FontAwsome (google-play)" d="M39.48,11.074,29.048.614,42.321,8.234ZM26.326,0A1.837,1.837,0,0,0,25.3,1.668V22.527A1.837,1.837,0,0,0,26.326,24.2L38.454,12.1Zm20.1,10.663L43.639,9.051,40.534,12.1l3.105,3.049,2.841-1.612A1.9,1.9,0,0,0,46.423,10.663ZM29.048,23.586l13.272-7.619L39.48,13.126Z" transform="translate(-14.785 7.96)" fill="#2dccd3"/>
      <text id="Google_Play" data-name="Google Play" transform="translate(82 29)" fill="#706c68" font-size="16" font-family="Roboto-Regular, Roboto"><tspan x="-42" y="0">Google Play</tspan></text>
      <text id="Download_on" data-name="Download on" transform="translate(40 14)" fill="#706c68" font-size="9" font-family="Roboto-Regular, Roboto"><tspan x="0" y="0">Download on</tspan></text>
    </g>
  </g>
</svg>
