<svg id="Groupe_7815" data-name="Groupe 7815" xmlns="http://www.w3.org/2000/svg" width="217" height="114.037" viewBox="0 0 217 114.037">
  <g id="Groupe_330" data-name="Groupe 330" transform="translate(11.654 108.307)">
    <path id="Tracé_439" data-name="Tracé 439" d="M205.01,511.686a.241.241,0,0,1-.167-.064.2.2,0,0,1-.072-.159.213.213,0,0,1,.072-.167.243.243,0,0,1,.167-.063h3.78a.254.254,0,0,1,.175.063.213.213,0,0,1,.071.167.2.2,0,0,1-.071.163.263.263,0,0,1-.175.06ZM206.9,516.8a.248.248,0,0,1-.183-.071.229.229,0,0,1-.071-.167V511.5h.5v5.069a.229.229,0,0,1-.072.167A.239.239,0,0,1,206.9,516.8Z" transform="translate(-204.771 -511.153)"/>
    <path id="Tracé_440" data-name="Tracé 440" d="M222.736,511.233a.242.242,0,0,1,.171.071.232.232,0,0,1,.075.175v5.077a.261.261,0,0,1-.083.175.242.242,0,0,1-.171.071.232.232,0,0,1-.183-.071.254.254,0,0,1-.063-.175V511.48a.238.238,0,0,1,.071-.175A.247.247,0,0,1,222.736,511.233Zm-.04,2.49h3.779l-.008.469h-3.8Zm3.772-2.49a.236.236,0,0,1,.179.071.248.248,0,0,1,.067.175v5.077a.278.278,0,0,1-.075.175.235.235,0,0,1-.179.071.245.245,0,0,1-.247-.247V511.48a.233.233,0,0,1,.076-.175A.251.251,0,0,1,226.468,511.233Z" transform="translate(-214.571 -511.153)"/>
    <path id="Tracé_441" data-name="Tracé 441" d="M241.426,511.233h2.913a.246.246,0,0,1,.175.067.225.225,0,0,1,.071.171.211.211,0,0,1-.071.167.253.253,0,0,1-.175.064H241.61l.08-.135V513.8l-.088-.1h2.379a.237.237,0,0,1,.175.071.23.23,0,0,1,.072.167.212.212,0,0,1-.072.167.254.254,0,0,1-.175.064h-2.363l.072-.079v2.292l-.04-.048h2.69a.239.239,0,0,1,.175.071.229.229,0,0,1,.071.167.213.213,0,0,1-.071.167.254.254,0,0,1-.175.064h-2.913a.225.225,0,0,1-.171-.071.236.236,0,0,1-.067-.167v-5.093a.236.236,0,0,1,.067-.167A.225.225,0,0,1,241.426,511.233Z" transform="translate(-224.923 -511.153)"/>
    <path id="Tracé_442" data-name="Tracé 442" d="M268.176,516.8a.238.238,0,0,1-.247-.238v-5.093A.235.235,0,0,1,268,511.3a.224.224,0,0,1,.171-.071h2.9a.236.236,0,0,1,.167.067.225.225,0,0,1,.071.171.217.217,0,0,1-.071.163.238.238,0,0,1-.167.067h-2.682l.032-.048v2.117l-.04-.071h2.331a.236.236,0,0,1,.167.067.226.226,0,0,1,.071.171.215.215,0,0,1-.071.163.234.234,0,0,1-.167.068H268.36l.056-.072v2.467a.236.236,0,0,1-.068.167A.225.225,0,0,1,268.176,516.8Z" transform="translate(-239.72 -511.153)"/>
    <path id="Tracé_443" data-name="Tracé 443" d="M287.832,511.233a.226.226,0,0,1,.171.071.238.238,0,0,1,.067.167v3.294a2.077,2.077,0,0,1-.279,1.067,2.122,2.122,0,0,1-.748.76,2.132,2.132,0,0,1-2.121,0,2.11,2.11,0,0,1-.752-.76,2.077,2.077,0,0,1-.279-1.067v-3.294a.237.237,0,0,1,.068-.167.244.244,0,0,1,.187-.071.244.244,0,0,1,.239.238v3.294a1.58,1.58,0,0,0,.219.828,1.666,1.666,0,0,0,.585.585,1.571,1.571,0,0,0,1.6,0,1.7,1.7,0,0,0,.589-.585,1.561,1.561,0,0,0,.223-.828v-3.294a.244.244,0,0,1,.063-.167A.213.213,0,0,1,287.832,511.233Z" transform="translate(-248.554 -511.153)"/>
    <path id="Tracé_444" data-name="Tracé 444" d="M301.627,511.686a.242.242,0,0,1-.167-.064.2.2,0,0,1-.071-.159.214.214,0,0,1,.071-.167.243.243,0,0,1,.167-.063h3.78a.254.254,0,0,1,.175.063.213.213,0,0,1,.072.167.2.2,0,0,1-.072.163.263.263,0,0,1-.175.06Zm1.894,5.117a.247.247,0,0,1-.183-.071.229.229,0,0,1-.071-.167V511.5h.5v5.069a.229.229,0,0,1-.071.167A.239.239,0,0,1,303.522,516.8Z" transform="translate(-258.235 -511.153)"/>
    <path id="Tracé_445" data-name="Tracé 445" d="M323.037,511.233a.225.225,0,0,1,.171.071.238.238,0,0,1,.068.167v3.294a2.077,2.077,0,0,1-.279,1.067,2.123,2.123,0,0,1-.748.76,2.132,2.132,0,0,1-2.121,0,2.11,2.11,0,0,1-.752-.76,2.077,2.077,0,0,1-.279-1.067v-3.294a.237.237,0,0,1,.068-.167.244.244,0,0,1,.187-.071.244.244,0,0,1,.238.238v3.294a1.58,1.58,0,0,0,.219.828,1.667,1.667,0,0,0,.585.585,1.571,1.571,0,0,0,1.6,0,1.7,1.7,0,0,0,.589-.585,1.562,1.562,0,0,0,.223-.828v-3.294a.244.244,0,0,1,.064-.167A.213.213,0,0,1,323.037,511.233Z" transform="translate(-268.035 -511.153)"/>
    <path id="Tracé_446" data-name="Tracé 446" d="M337.934,516.8a.273.273,0,0,1-.2-.071.223.223,0,0,1-.075-.167v-5.093a.236.236,0,0,1,.067-.167.226.226,0,0,1,.171-.071h2.149a1.669,1.669,0,0,1,.812.195,1.441,1.441,0,0,1,.561.537,1.5,1.5,0,0,1,.2.78,1.575,1.575,0,0,1-.127.64,1.392,1.392,0,0,1-.358.494,1.609,1.609,0,0,1-.517.306l-.279-.1a1.255,1.255,0,0,1,.549.195,1.217,1.217,0,0,1,.41.446,1.439,1.439,0,0,1,.163.672,4.768,4.768,0,0,0,.036.533.825.825,0,0,0,.084.286.434.434,0,0,0,.143.152.237.237,0,0,1,.108.135.2.2,0,0,1-.02.167.188.188,0,0,1-.1.091.31.31,0,0,1-.127.028.235.235,0,0,1-.119-.032.788.788,0,0,1-.231-.2,1.111,1.111,0,0,1-.187-.4,2.763,2.763,0,0,1-.076-.732,1.117,1.117,0,0,0-.1-.506.846.846,0,0,0-.255-.306.907.907,0,0,0-.343-.151,1.716,1.716,0,0,0-.354-.04h-1.854l.088-.119v2.252a.244.244,0,0,1-.063.167A.213.213,0,0,1,337.934,516.8Zm.143-2.817h2a1.1,1.1,0,0,0,.506-.175,1.157,1.157,0,0,0,.386-.426,1.292,1.292,0,0,0,.151-.632,1.006,1.006,0,0,0-.306-.752,1.1,1.1,0,0,0-.8-.3h-1.9l.055-.1v2.5Z" transform="translate(-278.308 -511.153)"/>
    <path id="Tracé_447" data-name="Tracé 447" d="M355.718,511.233h2.913a.246.246,0,0,1,.175.067.227.227,0,0,1,.071.171.213.213,0,0,1-.071.167.253.253,0,0,1-.175.064H355.9l.079-.135V513.8l-.088-.1h2.379a.238.238,0,0,1,.175.071.229.229,0,0,1,.071.167.212.212,0,0,1-.071.167.255.255,0,0,1-.175.064h-2.364l.072-.079v2.292l-.04-.048h2.69a.239.239,0,0,1,.175.071.231.231,0,0,1,.071.167.214.214,0,0,1-.071.167.254.254,0,0,1-.175.064h-2.913a.225.225,0,0,1-.171-.071.236.236,0,0,1-.068-.167v-5.093a.236.236,0,0,1,.068-.167A.225.225,0,0,1,355.718,511.233Z" transform="translate(-288.166 -511.153)"/>
    <path id="Tracé_448" data-name="Tracé 448" d="M384.57,511.233a1.45,1.45,0,0,1,1.046.362,1.329,1.329,0,0,1,.378,1.007,1.459,1.459,0,0,1-.143.64,1.193,1.193,0,0,1-.426.485,1.373,1.373,0,0,1-.688.211l-.04-.159a2.016,2.016,0,0,1,.577.083,1.473,1.473,0,0,1,.51.267,1.339,1.339,0,0,1,.362.457,1.492,1.492,0,0,1,.135.664,1.671,1.671,0,0,1-.139.712,1.309,1.309,0,0,1-.378.485,1.526,1.526,0,0,1-.537.271,2.3,2.3,0,0,1-.624.084H382.46a.226.226,0,0,1-.171-.071.236.236,0,0,1-.067-.167v-5.093a.236.236,0,0,1,.067-.167.225.225,0,0,1,.171-.071Zm-.072.477h-1.862l.1-.151v2.252l-.088-.119h1.862a.953.953,0,0,0,.979-1.05.9.9,0,0,0-.259-.68A1,1,0,0,0,384.5,511.71Zm.064,2.467h-1.87l.04-.056v2.284l-.048-.071h1.886a1.385,1.385,0,0,0,.859-.259.966.966,0,0,0,.342-.824,1.09,1.09,0,0,0-.167-.636.9.9,0,0,0-.446-.338A1.763,1.763,0,0,0,384.562,514.177Z" transform="translate(-302.965 -511.153)"/>
    <path id="Tracé_449" data-name="Tracé 449" d="M400.917,511.823l-1.934,4.8a.26.26,0,0,1-.088.12.214.214,0,0,1-.127.04.227.227,0,0,1-.175-.06.207.207,0,0,1-.056-.147.2.2,0,0,1,.008-.1l2.1-5.141a.228.228,0,0,1,.091-.123.269.269,0,0,1,.139-.036.244.244,0,0,1,.147.044.288.288,0,0,1,.091.115l2.093,5.117a.3.3,0,0,1,.016.1.209.209,0,0,1-.071.171.251.251,0,0,1-.167.06.23.23,0,0,1-.139-.044.28.28,0,0,1-.092-.116l-1.981-4.838Zm-1.472,3.342.2-.469h2.467l.1.469Z" transform="translate(-311.992 -511.123)"/>
    <path id="Tracé_450" data-name="Tracé 450" d="M421.162,511.233a.214.214,0,0,1,.163.063.224.224,0,0,1,.059.159v5.093a.238.238,0,0,1-.075.187.249.249,0,0,1-.171.068.3.3,0,0,1-.108-.02.2.2,0,0,1-.084-.06l-3.549-4.775.135-.08v4.719a.207.207,0,0,1-.064.151.215.215,0,0,1-.159.064.211.211,0,0,1-.223-.215v-5.117a.225.225,0,0,1,.231-.238.32.32,0,0,1,.1.02.174.174,0,0,1,.088.068l3.509,4.727-.08.143v-4.734a.218.218,0,0,1,.223-.223Z" transform="translate(-322.258 -511.153)"/>
    <path id="Tracé_451" data-name="Tracé 451" d="M436.184,516.8a.232.232,0,0,1-.183-.071.254.254,0,0,1-.063-.175V511.48a.238.238,0,0,1,.071-.175.248.248,0,0,1,.183-.071.244.244,0,0,1,.247.247v5.077a.269.269,0,0,1-.08.175A.238.238,0,0,1,436.184,516.8Zm3.645-5.554a.212.212,0,0,1,.163.075.242.242,0,0,1,.068.163.221.221,0,0,1-.072.159l-3.612,3.39-.064-.549,3.334-3.16A.271.271,0,0,1,439.829,511.249Zm.088,5.587a.219.219,0,0,1-.175-.088l-2.26-2.841.374-.374,2.276,2.88a.287.287,0,0,1,.056.167.218.218,0,0,1-.092.191A.314.314,0,0,1,439.917,516.835Z" transform="translate(-332.689 -511.153)"/>
    <path id="Tracé_452" data-name="Tracé 452" d="M454.345,516.557a.264.264,0,0,1-.084.175.243.243,0,0,1-.171.071.232.232,0,0,1-.183-.071.255.255,0,0,1-.064-.175V511.48a.239.239,0,0,1,.072-.175.247.247,0,0,1,.183-.071.243.243,0,0,1,.172.071.234.234,0,0,1,.075.175Z" transform="translate(-342.597 -511.153)"/>
    <path id="Tracé_453" data-name="Tracé 453" d="M468.251,511.233a.213.213,0,0,1,.163.063.224.224,0,0,1,.06.159v5.093a.238.238,0,0,1-.076.187.248.248,0,0,1-.171.068.3.3,0,0,1-.107-.02.2.2,0,0,1-.084-.06l-3.549-4.775.135-.08v4.719a.207.207,0,0,1-.064.151.216.216,0,0,1-.159.064.211.211,0,0,1-.223-.215v-5.117a.224.224,0,0,1,.231-.238.315.315,0,0,1,.1.02.171.171,0,0,1,.088.068l3.509,4.727-.08.143v-4.734a.218.218,0,0,1,.223-.223Z" transform="translate(-348.315 -511.153)"/>
    <path id="Tracé_454" data-name="Tracé 454" d="M485.062,516.783a2.965,2.965,0,0,1-1.142-.215,2.8,2.8,0,0,1-.911-.6,2.713,2.713,0,0,1-.6-.911,3.121,3.121,0,0,1,0-2.276,2.712,2.712,0,0,1,.6-.911,2.8,2.8,0,0,1,.911-.6,2.975,2.975,0,0,1,1.142-.215,3.278,3.278,0,0,1,.812.1,2.489,2.489,0,0,1,.708.3.278.278,0,0,1,.083.092.238.238,0,0,1,.028.116.219.219,0,0,1-.075.171.232.232,0,0,1-.155.068.2.2,0,0,1-.072-.012l-.071-.028a3.06,3.06,0,0,0-.589-.235,2.42,2.42,0,0,0-.668-.091,2.352,2.352,0,0,0-1.218.314,2.267,2.267,0,0,0-.836.851,2.627,2.627,0,0,0,0,2.447,2.221,2.221,0,0,0,.836.851,2.371,2.371,0,0,0,1.218.311,2.614,2.614,0,0,0,.72-.1,2.216,2.216,0,0,0,.625-.279l-.04.167v-1.83l.119.111H485.11a.238.238,0,0,1-.175-.072.227.227,0,0,1-.072-.167.222.222,0,0,1,.072-.175.252.252,0,0,1,.175-.064h1.512a.242.242,0,0,1,.179.068.231.231,0,0,1,.067.171v1.918a.237.237,0,0,1-.032.119.3.3,0,0,1-.088.1,3.178,3.178,0,0,1-.792.378A2.92,2.92,0,0,1,485.062,516.783Z" transform="translate(-358.282 -511.054)"/>
    <path id="Tracé_455" data-name="Tracé 455" d="M513,516.783a2.517,2.517,0,0,1-1.051-.187,2.865,2.865,0,0,1-.851-.593.414.414,0,0,1-.068-.087A.22.22,0,0,1,511,515.8a.248.248,0,0,1,.076-.175.23.23,0,0,1,.171-.079.243.243,0,0,1,.175.079,2.141,2.141,0,0,0,.7.509,2.056,2.056,0,0,0,.847.175,1.823,1.823,0,0,0,.681-.119,1.113,1.113,0,0,0,.474-.342.814.814,0,0,0,.175-.517.9.9,0,0,0-.2-.589,1.539,1.539,0,0,0-.521-.374,4.8,4.8,0,0,0-.724-.263q-.326-.1-.624-.227a2.176,2.176,0,0,1-.525-.3,1.246,1.246,0,0,1-.354-.442,1.427,1.427,0,0,1-.127-.628,1.313,1.313,0,0,1,.223-.752,1.484,1.484,0,0,1,.632-.517,2.272,2.272,0,0,1,.951-.187,2.594,2.594,0,0,1,.9.159,1.56,1.56,0,0,1,.688.469.359.359,0,0,1,.12.231.225.225,0,0,1-.079.163.249.249,0,0,1-.175.076.183.183,0,0,1-.135-.056,1.411,1.411,0,0,0-.342-.3,1.741,1.741,0,0,0-.458-.2,1.882,1.882,0,0,0-.521-.072,1.855,1.855,0,0,0-.672.116,1.082,1.082,0,0,0-.469.33.816.816,0,0,0-.171.525.781.781,0,0,0,.191.545,1.479,1.479,0,0,0,.5.35q.31.139.66.259a6.589,6.589,0,0,1,.657.219,2.344,2.344,0,0,1,.557.306,1.3,1.3,0,0,1,.382.462,1.565,1.565,0,0,1,.139.7,1.24,1.24,0,0,1-.231.732,1.593,1.593,0,0,1-.633.517A2.255,2.255,0,0,1,513,516.783Z" transform="translate(-374.224 -511.054)"/>
    <path id="Tracé_456" data-name="Tracé 456" d="M532.425,513.919a3.247,3.247,0,0,1-.2,1.15,2.714,2.714,0,0,1-.553.907,2.482,2.482,0,0,1-.847.6,2.835,2.835,0,0,1-2.145,0,2.49,2.49,0,0,1-.843-.6,2.767,2.767,0,0,1-.557-.907,3.419,3.419,0,0,1,0-2.3,2.769,2.769,0,0,1,.557-.907,2.489,2.489,0,0,1,.843-.6,2.827,2.827,0,0,1,2.145,0,2.48,2.48,0,0,1,.847.6,2.715,2.715,0,0,1,.553.907A3.247,3.247,0,0,1,532.425,513.919Zm-.509,0a2.668,2.668,0,0,0-.279-1.245,2.119,2.119,0,0,0-.76-.839,2.055,2.055,0,0,0-1.118-.3,2.046,2.046,0,0,0-1.882,1.142,2.961,2.961,0,0,0,0,2.491,2.152,2.152,0,0,0,3,.839,2.123,2.123,0,0,0,.76-.839A2.668,2.668,0,0,0,531.916,513.919Z" transform="translate(-383.126 -511.054)"/>
    <path id="Tracé_457" data-name="Tracé 457" d="M550.522,516.334a.247.247,0,0,1,.175.067.219.219,0,0,1,.072.164.226.226,0,0,1-.072.171.244.244,0,0,1-.175.068h-2.833a.224.224,0,0,1-.171-.071.236.236,0,0,1-.068-.167v-5.093a.23.23,0,0,1,.072-.167.247.247,0,0,1,.183-.071.243.243,0,0,1,.172.071.225.225,0,0,1,.075.167v5l-.151-.135Z" transform="translate(-394.395 -511.153)"/>
    <path id="Tracé_458" data-name="Tracé 458" d="M566.391,511.233a.225.225,0,0,1,.171.071.236.236,0,0,1,.068.167v3.294a2.076,2.076,0,0,1-.279,1.067,2.12,2.12,0,0,1-.748.76,2.008,2.008,0,0,1-1.058.282,2.031,2.031,0,0,1-1.063-.282,2.111,2.111,0,0,1-.752-.76,2.081,2.081,0,0,1-.278-1.067v-3.294a.235.235,0,0,1,.068-.167.244.244,0,0,1,.187-.071.245.245,0,0,1,.239.238v3.294a1.58,1.58,0,0,0,.219.828,1.666,1.666,0,0,0,.585.585,1.57,1.57,0,0,0,1.6,0,1.7,1.7,0,0,0,.589-.585,1.562,1.562,0,0,0,.222-.828v-3.294a.244.244,0,0,1,.064-.167A.212.212,0,0,1,566.391,511.233Z" transform="translate(-402.696 -511.153)"/>
    <path id="Tracé_459" data-name="Tracé 459" d="M580.186,511.686a.241.241,0,0,1-.167-.064.2.2,0,0,1-.071-.159.213.213,0,0,1,.071-.167.243.243,0,0,1,.167-.063h3.78a.252.252,0,0,1,.175.063.213.213,0,0,1,.072.167.2.2,0,0,1-.072.163.261.261,0,0,1-.175.06Zm1.894,5.117a.247.247,0,0,1-.183-.071.23.23,0,0,1-.072-.167V511.5h.5v5.069a.229.229,0,0,1-.072.167A.238.238,0,0,1,582.08,516.8Z" transform="translate(-412.378 -511.153)"/>
    <path id="Tracé_460" data-name="Tracé 460" d="M598.158,516.557a.263.263,0,0,1-.083.175.244.244,0,0,1-.172.071.231.231,0,0,1-.183-.071.252.252,0,0,1-.064-.175V511.48a.239.239,0,0,1,.071-.175.248.248,0,0,1,.183-.071.242.242,0,0,1,.171.071.232.232,0,0,1,.075.175Z" transform="translate(-422.177 -511.153)"/>
    <path id="Tracé_461" data-name="Tracé 461" d="M612.493,513.919a3.26,3.26,0,0,1-.2,1.15,2.716,2.716,0,0,1-.553.907,2.48,2.48,0,0,1-.847.6,2.835,2.835,0,0,1-2.145,0,2.492,2.492,0,0,1-.843-.6,2.76,2.76,0,0,1-.557-.907,3.418,3.418,0,0,1,0-2.3,2.762,2.762,0,0,1,.557-.907,2.49,2.49,0,0,1,.843-.6,2.827,2.827,0,0,1,2.145,0,2.478,2.478,0,0,1,.847.6,2.718,2.718,0,0,1,.553.907A3.259,3.259,0,0,1,612.493,513.919Zm-.509,0a2.669,2.669,0,0,0-.279-1.245,2.118,2.118,0,0,0-.76-.839,2.056,2.056,0,0,0-1.118-.3,2.045,2.045,0,0,0-1.882,1.142,2.962,2.962,0,0,0,0,2.491,2.152,2.152,0,0,0,3,.839,2.122,2.122,0,0,0,.76-.839A2.669,2.669,0,0,0,611.983,513.919Z" transform="translate(-427.432 -511.054)"/>
    <path id="Tracé_462" data-name="Tracé 462" d="M631.591,511.233a.211.211,0,0,1,.163.063.222.222,0,0,1,.06.159v5.093a.237.237,0,0,1-.075.187.249.249,0,0,1-.171.068.3.3,0,0,1-.108-.02.2.2,0,0,1-.083-.06l-3.549-4.775.135-.08v4.719a.207.207,0,0,1-.064.151.216.216,0,0,1-.159.064.211.211,0,0,1-.223-.215v-5.117a.225.225,0,0,1,.231-.238.316.316,0,0,1,.1.02.171.171,0,0,1,.088.068l3.509,4.727-.08.143v-4.734a.218.218,0,0,1,.223-.223Z" transform="translate(-438.7 -511.153)"/>
  </g>
  <line id="Ligne_2" data-name="Ligne 2" x2="6.89" transform="translate(163.517 70.263)" fill="lime"/>
  <path id="Tracé_463" data-name="Tracé 463" d="M360.549,305.888V285.954a.458.458,0,0,1,.477-.476h15.883a1.183,1.183,0,0,0,.715-.318l13.183-15.883a.42.42,0,0,0-.079-.635c-.079-.08-.159-.08-.318-.08h-6.671a1.989,1.989,0,0,0-1.429.635l-7.227,8.736a.6.6,0,0,1-.318.159h-18.9a2.678,2.678,0,0,0-2.7,2.7h0v30.257a2.678,2.678,0,0,0,2.7,2.7h22.157a1.7,1.7,0,0,0,1.35-.636l5-6.035a.421.421,0,0,0-.079-.636c-.08-.079-.159-.079-.318-.079h-23.03a.445.445,0,0,1-.4-.476h0" transform="translate(-275.231 -268.563)" fill="#08253e"/>
  <path id="Tracé_464" data-name="Tracé 464" d="M445.609,322.856V292.6a2.678,2.678,0,0,0-2.7-2.7H420.753a1.7,1.7,0,0,0-1.35.636l-5,6.035a.421.421,0,0,0,.079.636c.08.079.159.079.318.079h23.03a.512.512,0,0,1,.477.476v19.933a.512.512,0,0,1-.477.476H421.944a1.183,1.183,0,0,0-.715.318l-13.183,15.883a.414.414,0,0,0-.079.635c.079.159.238.159.4.159h6.671a1.7,1.7,0,0,0,1.35-.636l7.306-8.735a.6.6,0,0,1,.318-.159h18.9a2.7,2.7,0,0,0,2.7-2.78h0" transform="translate(-305.496 -280.369)" fill="#2dccd3"/>
  <path id="Tracé_465" data-name="Tracé 465" d="M179.555,453.769h3.9a.884.884,0,0,0,.876-.876v-25.8a.884.884,0,0,0-.876-.876h-3.9a.884.884,0,0,0-.876.876v25.8a.884.884,0,0,0,.876.876" transform="translate(-178.679 -355.801)" fill="#08253e"/>
  <path id="Tracé_466" data-name="Tracé 466" d="M212.913,437.365h-9.635a.837.837,0,0,0-.717.4l-2.946,4.141a.43.43,0,0,0,.159.637.293.293,0,0,0,.239.079h12.9v10.273a.884.884,0,0,0,.876.876h3.9a.883.883,0,0,0,.876-.876v-25.8a.884.884,0,0,0-.876-.876h-3.9a.884.884,0,0,0-.876.876Z" transform="translate(-190.218 -355.801)" fill="#08253e"/>
  <path id="Tracé_467" data-name="Tracé 467" d="M273.183,431.552h18.156a.884.884,0,0,0,.876-.876v-3.583a.884.884,0,0,0-.876-.876H268.166a.884.884,0,0,0-.876.876v25.721a.884.884,0,0,0,.876.876h23.253a.884.884,0,0,0,.876-.876h0V449.23a.884.884,0,0,0-.876-.876H273.183a.172.172,0,0,1-.159-.159h0v-16.4c-.08-.159,0-.239.159-.239h0" transform="translate(-227.712 -355.801)" fill="#08253e"/>
  <path id="Tracé_468" data-name="Tracé 468" d="M302.635,455.477v-3.424a.884.884,0,0,0-.876-.876h-9.874a.837.837,0,0,0-.717.4l-2.946,4.141a.481.481,0,0,0,.079.637.293.293,0,0,0,.239.079h13.219a.956.956,0,0,0,.876-.956" transform="translate(-239.247 -369.614)" fill="#08253e"/>
  <path id="Tracé_469" data-name="Tracé 469" d="M609.564,443.258,597.778,427.65a.9.9,0,0,1,.159-1.274,1.151,1.151,0,0,1,.557-.159h4.778a.837.837,0,0,1,.717.4L612.351,438a.293.293,0,0,0,.239.079l.08-.079,8.441-11.388a.949.949,0,0,1,.716-.4h4.778a.884.884,0,0,1,.876.876,1.475,1.475,0,0,1-.159.557l-11.706,15.608v9.556a.883.883,0,0,1-.876.876h-4.22a.884.884,0,0,1-.876-.876h0v-9.476l-.08-.079" transform="translate(-410.482 -355.801)" fill="#08253e"/>
  <path id="Tracé_470" data-name="Tracé 470" d="M548.11,452.139l-15.529-25.8a.875.875,0,0,0-.8-.478h-6.131a.98.98,0,0,0-.8.4l-15.608,25.8a.937.937,0,0,0,.318,1.274,1.134,1.134,0,0,0,.478.159h4.38a.876.876,0,0,0,.8-.478l13.139-21.979a.291.291,0,0,1,.239-.08.078.078,0,0,1,.08.08l6.689,11.149h-9.158a.876.876,0,0,0-.8.477l-2.469,4.141a.43.43,0,0,0,.16.637.293.293,0,0,0,.239.079h15.13l3.344,5.654a1.057,1.057,0,0,0,.8.478h4.7a1.018,1.018,0,0,0,.956-.876,1.231,1.231,0,0,0-.159-.637" transform="translate(-361.53 -355.604)" fill="#08253e"/>
  <path id="Tracé_471" data-name="Tracé 471" d="M372.045,439.815c0,4.937-3.106,8.282-8.362,8.282h-9.556a.171.171,0,0,1-.159-.159h0V431.692a.171.171,0,0,1,.159-.159h9.556c5.256,0,8.362,3.344,8.362,8.282ZM364.4,426.038H349.111a.884.884,0,0,0-.876.876v25.722a.884.884,0,0,0,.876.876H364.4c9.238,0,13.378-7.247,13.378-13.777s-4.061-13.7-13.378-13.7" transform="translate(-272.504 -355.703)" fill="#08253e"/>
  <path id="Tracé_472" data-name="Tracé 472" d="M455.245,440.948h-5.734a.837.837,0,0,0-.717.4l-3.026,4.22a.431.431,0,0,0,.159.637.292.292,0,0,0,.239.08h9.476c7.087,0,10.193-4.858,10.193-10.113s-2.947-9.954-10.193-9.954H437.009a.884.884,0,0,0-.876.876v25.721a.883.883,0,0,0,.876.876h3.9a.884.884,0,0,0,.876-.876h0V431.791a.171.171,0,0,1,.159-.159h13.3c4.141,0,4.778,3.026,4.778,4.46s-.4,4.857-4.778,4.857" transform="translate(-321.143 -355.801)" fill="#08253e"/>
</svg>
