<svg xmlns="http://www.w3.org/2000/svg" xmlns:xlink="http://www.w3.org/1999/xlink" width="22.891" height="22.891" viewBox="0 0 22.891 22.891">
  <defs>
    <clipPath id="clip-path">
      <rect id="Rectangle_4227" data-name="Rectangle 4227" width="22.89" height="22.89" transform="translate(-0.001 0.001)" fill="red"/>
    </clipPath>
  </defs>
  <g id="hedpay-footer-logo-coinmarketcap" transform="translate(0 -0.001)" clip-path="url(#clip-path)">
    <path id="coinmarketcap_1" d="M19.6,13.678a1.1,1.1,0,0,1-1.228.056,1.847,1.847,0,0,1-.726-1.675V9.547c0-1.228-.5-2.066-1.284-2.289-1.34-.391-2.345,1.284-2.736,1.9l-2.4,3.852V8.263c0-1.061-.391-1.731-1.061-1.954C9.714,6.2,9.044,6.253,8.43,7.2l-5.3,8.654a9.193,9.193,0,0,1-1.061-4.411,9.329,9.329,0,0,1,9.212-9.379,9.294,9.294,0,0,1,9.212,9.379h0a2.352,2.352,0,0,1-.893,2.233Zm2.959-2.233h0A11.39,11.39,0,0,0,11.278,0a11.446,11.446,0,0,0,0,22.89,10.9,10.9,0,0,0,7.649-3.071,1.027,1.027,0,0,0-1.4-1.507h0a9.067,9.067,0,0,1-6.253,2.512A9.16,9.16,0,0,1,4.411,17.7l4.8-7.7v3.573c0,1.731.67,2.289,1.228,2.4.558.167,1.4.056,2.289-1.4l2.624-4.3a3.42,3.42,0,0,0,.223-.335v2.177a3.8,3.8,0,0,0,1.731,3.517,3.31,3.31,0,0,0,3.294-.112A4.445,4.445,0,0,0,22.555,11.445Z" transform="translate(0.165 0.001)" fill="#17181b" fill-rule="evenodd"/>
  </g>
</svg>
