<svg xmlns="http://www.w3.org/2000/svg" width="22.922" height="22.921" viewBox="0 0 22.922 22.921">
  <path id="hedpay-tw-footer" d="M20.465,32H2.456A2.456,2.456,0,0,0,0,34.456V52.465a2.456,2.456,0,0,0,2.456,2.456H20.465a2.456,2.456,0,0,0,2.456-2.456V34.456A2.456,2.456,0,0,0,20.465,32Zm-2.5,8.125c.01.143.01.292.01.435a9.482,9.482,0,0,1-9.547,9.547,9.5,9.5,0,0,1-5.152-1.5,7.069,7.069,0,0,0,.808.041A6.728,6.728,0,0,0,8.247,47.21a3.36,3.36,0,0,1-3.136-2.328,3.617,3.617,0,0,0,1.514-.061A3.356,3.356,0,0,1,3.94,41.526v-.041a3.353,3.353,0,0,0,1.514.425A3.348,3.348,0,0,1,3.96,39.117a3.314,3.314,0,0,1,.455-1.693,9.528,9.528,0,0,0,6.917,3.51,3.363,3.363,0,0,1,5.725-3.065,6.575,6.575,0,0,0,2.128-.808,3.347,3.347,0,0,1-1.473,1.847,6.678,6.678,0,0,0,1.934-.522A7.063,7.063,0,0,1,17.963,40.125Z" transform="translate(0 -32)" fill="#00263f"/>
</svg>
