<svg xmlns="http://www.w3.org/2000/svg" xmlns:xlink="http://www.w3.org/1999/xlink" width="22.891" height="22.891" viewBox="0 0 22.891 22.891">
  <defs>
    <clipPath id="clip-path">
      <rect id="Rectangle_4225" data-name="Rectangle 4225" width="22.89" height="22.89" transform="translate(0 0.001)" fill="red"/>
    </clipPath>
  </defs>
  <g id="hedpay-footer-logo-xt" transform="translate(0 -0.001)" clip-path="url(#clip-path)">
    <path id="形状_519" d="M11.328,22.89A11.445,11.445,0,1,1,22.681,11.353v.092A11.4,11.4,0,0,1,11.328,22.89Zm0-21.2a9.728,9.728,0,1,0,9.659,9.8V11.4A9.7,9.7,0,0,0,11.328,1.694Zm.412,8.195,2.2-2.7a.653.653,0,0,0-.092-.916.639.639,0,0,0-.412-.137h0a.735.735,0,0,0-.5.229L10.87,8.835,8.81,6.363a.735.735,0,0,0-.5-.229H6.613a.655.655,0,0,0-.641.641.639.639,0,0,0,.137.412L9.131,10.9,5.24,15.657a.648.648,0,1,0,.961.87h0l3.708-4.532Zm5.081-3.754a.735.735,0,0,0-.5.229L12.61,10.9l-1.648,2.06-2.2,2.7a.651.651,0,1,0,1.007.824l2.06-2.472,2.06,2.472a.735.735,0,0,0,.5.229H16a.626.626,0,0,0,.641-.641.639.639,0,0,0-.137-.412L13.48,11.948l3.891-4.761a.653.653,0,0,0-.092-.916,1.023,1.023,0,0,0-.458-.137" transform="translate(0.208 0.001)" fill-rule="evenodd"/>
  </g>
</svg>
