<svg xmlns="http://www.w3.org/2000/svg" width="22.922" height="22.921" viewBox="0 0 22.922 22.921">
  <path id="hedpay-in-footer" d="M21.284,32H1.632A1.644,1.644,0,0,0,0,33.653V53.268a1.644,1.644,0,0,0,1.632,1.653H21.284a1.649,1.649,0,0,0,1.637-1.653V33.653A1.649,1.649,0,0,0,21.284,32ZM6.927,51.646H3.53V40.708h3.4V51.646Zm-1.7-12.432a1.97,1.97,0,1,1,1.97-1.97A1.971,1.971,0,0,1,5.229,39.214ZM19.662,51.646h-3.4V46.325c0-1.269-.026-2.9-1.765-2.9-1.77,0-2.041,1.381-2.041,2.809v5.413h-3.4V40.708H12.32V42.2h.046a3.578,3.578,0,0,1,3.218-1.765c3.438,0,4.078,2.266,4.078,5.213Z" transform="translate(0 -32)" fill="#00263f"/>
</svg>
