<svg xmlns="http://www.w3.org/2000/svg" width="22.922" height="22.921" viewBox="0 0 22.922 22.921">
  <path id="hedpay-fc-footer" d="M20.465,32H2.456A2.456,2.456,0,0,0,0,34.456V52.465a2.456,2.456,0,0,0,2.456,2.456H9.478V47.128H6.255V43.46H9.478v-2.8c0-3.18,1.893-4.936,4.792-4.936a19.528,19.528,0,0,1,2.841.248V39.1h-1.6a1.834,1.834,0,0,0-2.068,1.981V43.46h3.519L16.4,47.128H13.443v7.792h7.022a2.456,2.456,0,0,0,2.456-2.456V34.456A2.456,2.456,0,0,0,20.465,32Z" transform="translate(0 -32)" fill="#00263f"/>
</svg>
