<svg xmlns="http://www.w3.org/2000/svg" xmlns:xlink="http://www.w3.org/1999/xlink" width="22.891" height="22.891" viewBox="0 0 22.891 22.891">
  <defs>
    <clipPath id="clip-path">
      <rect id="Rectangle_4226" data-name="Rectangle 4226" width="22.89" height="22.89" transform="translate(-0.001 0.001)" fill="red"/>
    </clipPath>
  </defs>
  <g id="hedpay-footer-logo-coingecko" transform="translate(0.002 -0.001)" clip-path="url(#clip-path)">
    <g id="Coin_Gecko_AI" transform="translate(-0.001 0.001)">
      <path id="Tracé_2612" data-name="Tracé 2612" d="M20,12.3a.444.444,0,1,1-.448-.44A.439.439,0,0,1,20,12.3Z" transform="translate(-2.286 -1.418)" fill="#fff"/>
      <path id="Tracé_2613" data-name="Tracé 2613" d="M12.542,9.865A1.443,1.443,0,1,1,11.1,8.422h0A1.444,1.444,0,0,1,12.542,9.865Z" transform="translate(-1.155 -1.007)"/>
      <path id="Tracé_2614" data-name="Tracé 2614" d="M11.4,0h0A11.445,11.445,0,1,0,22.89,11.4,11.447,11.447,0,0,0,11.4,0ZM9.944,10.889a2.049,2.049,0,0,1,0-4.1h0a2.048,2.048,0,0,1,2.048,2.049h0A2.048,2.048,0,0,1,9.944,10.889ZM11.578,13.1l.025-.025a3.748,3.748,0,0,0,1.916.531,9.147,9.147,0,0,0,2.015-.166,10.7,10.7,0,0,0,1.957-.605,7.209,7.209,0,0,0,1.8-1l.008.008c-.241.174-.473.365-.7.564a10.429,10.429,0,0,1-1.028.572,10.908,10.908,0,0,1-1.966.713,6.171,6.171,0,0,1-2.1.241A2.817,2.817,0,0,1,11.578,13.1Zm1.742,8.766h0c-.44-3.1,2.264-6.137,3.79-7.688.34-.34.854-.813,1.335-1.31,2.015-1.866,2.447-4.1-1.634-5.208-.771-.224-1.567-.539-2.372-.854h0c0-.008,0-.008-.008-.017a1.365,1.365,0,0,0-.075-.174c-.489-1.037-1.8-1.161-2.886-.821h0A5.927,5.927,0,0,0,8.7,5.706C4.81,6.776,4.163,8.667,4,10.948a18.3,18.3,0,0,1-1.277,6.5A10.567,10.567,0,0,1,11.4.863h0a10.583,10.583,0,0,1,1.924,21Z" transform="translate(0 0)"/>
    </g>
  </g>
</svg>
