<svg xmlns="http://www.w3.org/2000/svg" width="32.598" height="22.921" viewBox="0 0 32.598 22.921">
  <path id="hedpay-you-footer" d="M46.851,67.586a4.1,4.1,0,0,0-2.882-2.9C41.426,64,31.232,64,31.232,64s-10.194,0-12.736.686a4.1,4.1,0,0,0-2.882,2.9,46.118,46.118,0,0,0,0,15.794A4.035,4.035,0,0,0,18.5,86.235c2.542.686,12.736.686,12.736.686s10.194,0,12.736-.686a4.035,4.035,0,0,0,2.882-2.854,46.117,46.117,0,0,0,0-15.794ZM27.9,80.33V70.637l8.52,4.847Z" transform="translate(-14.934 -64)" fill="#00263f"/>
</svg>
