<svg xmlns="http://www.w3.org/2000/svg" width="22.926" height="22.92" viewBox="0 0 22.926 22.92">
  <path id="hedpay-ins-footer" d="M11.391,37.409a5.877,5.877,0,1,0,5.877,5.877A5.867,5.867,0,0,0,11.391,37.409Zm0,9.7a3.821,3.821,0,1,1,3.821-3.821A3.828,3.828,0,0,1,11.391,47.106Zm7.488-9.937A1.371,1.371,0,1,1,17.508,35.8,1.368,1.368,0,0,1,18.878,37.168Zm3.892,1.391a6.783,6.783,0,0,0-1.851-4.8,6.828,6.828,0,0,0-4.8-1.851c-1.892-.107-7.564-.107-9.457,0a6.818,6.818,0,0,0-4.8,1.846,6.805,6.805,0,0,0-1.851,4.8c-.107,1.892-.107,7.564,0,9.457a6.783,6.783,0,0,0,1.851,4.8,6.837,6.837,0,0,0,4.8,1.851c1.892.107,7.564.107,9.457,0a6.783,6.783,0,0,0,4.8-1.851,6.828,6.828,0,0,0,1.851-4.8c.107-1.892.107-7.559,0-9.452ZM20.326,50.042a3.868,3.868,0,0,1-2.179,2.179c-1.509.6-5.089.46-6.756.46s-5.253.133-6.756-.46a3.868,3.868,0,0,1-2.179-2.179c-.6-1.509-.46-5.089-.46-6.756s-.133-5.253.46-6.756A3.868,3.868,0,0,1,4.634,34.35c1.509-.6,5.089-.46,6.756-.46s5.253-.133,6.756.46a3.868,3.868,0,0,1,2.179,2.179c.6,1.509.46,5.089.46,6.756S20.924,48.538,20.326,50.042Z" transform="translate(0.074 -31.825)" fill="#00263f"/>
</svg>
