<svg xmlns="http://www.w3.org/2000/svg" xmlns:xlink="http://www.w3.org/1999/xlink" width="22.891" height="22.891" viewBox="0 0 22.891 22.891">
  <defs>
    <clipPath id="clip-path">
      <rect id="Rectangle_4230" data-name="Rectangle 4230" width="22.89" height="22.89" transform="translate(0.001 0.001)" fill="#ff4e4e"/>
    </clipPath>
  </defs>
  <g id="hedpay-footer-logo-medium" transform="translate(0 -0.001)" clip-path="url(#clip-path)">
    <g id="medium-seeklogo.com-2" transform="translate(0.001 4.946)">
      <path id="Tracé_2615" data-name="Tracé 2615" d="M6.456,0A6.5,6.5,0,1,1,0,6.5,6.478,6.478,0,0,1,6.456,0ZM16.765.381c1.783,0,3.228,2.739,3.228,6.119h0c0,3.379-1.445,6.119-3.228,6.119S13.538,9.879,13.538,6.5,14.982.381,16.765.381Zm4.99.637c.627,0,1.135,2.454,1.135,5.482s-.508,5.482-1.135,5.482S20.62,9.528,20.62,6.5,21.128,1.018,21.755,1.018Z" transform="translate(0 0)"/>
    </g>
  </g>
</svg>
