<svg xmlns="http://www.w3.org/2000/svg" width="272" height="50.808" viewBox="0 0 272 50.808">
  <g id="Groupe_308" data-name="Groupe 308" transform="translate(-816.497 -886.322)">
    <path id="Tracé_384" data-name="Tracé 384" d="M823.345,920.93V902.448a.424.424,0,0,1,.442-.442h14.727a1.1,1.1,0,0,0,.662-.295L851.4,886.985a.39.39,0,0,0-.074-.589c-.073-.074-.147-.074-.294-.074h-6.186a1.843,1.843,0,0,0-1.325.589l-6.7,8.1a.557.557,0,0,1-.295.147H819a2.483,2.483,0,0,0-2.5,2.5v28.055a2.483,2.483,0,0,0,2.5,2.5h20.544a1.573,1.573,0,0,0,1.252-.589l4.639-5.6a.39.39,0,0,0-.074-.589c-.073-.074-.147-.074-.294-.074H823.713a.412.412,0,0,1-.368-.442" transform="translate(0)" fill="#fff"/>
    <path id="Tracé_385" data-name="Tracé 385" d="M914.779,941.565V913.51a2.483,2.483,0,0,0-2.5-2.5H891.731a1.572,1.572,0,0,0-1.252.589l-4.639,5.6a.39.39,0,0,0,.074.59c.073.073.147.073.294.073h21.354a.475.475,0,0,1,.442.442v18.482a.475.475,0,0,1-.442.442H892.836a1.1,1.1,0,0,0-.663.295L879.95,952.242a.384.384,0,0,0-.074.589c.074.147.221.147.368.147h6.185a1.572,1.572,0,0,0,1.252-.589l6.774-8.1a.557.557,0,0,1,.295-.147h17.525a2.5,2.5,0,0,0,2.5-2.577h0" transform="translate(-40.626 -15.849)" fill="#22222D"/>
    <path id="Tracé_386" data-name="Tracé 386" d="M1015.08,947.257h3.618a.82.82,0,0,0,.812-.812V922.521a.82.82,0,0,0-.812-.812h-3.618a.819.819,0,0,0-.812.812v23.923a.819.819,0,0,0,.812.812" transform="translate(-126.977 -22.72)" fill="#fff"/>
    <path id="Tracé_387" data-name="Tracé 387" d="M1050.8,932.046h-8.935a.776.776,0,0,0-.665.369l-2.732,3.84a.4.4,0,0,0,.148.591.271.271,0,0,0,.221.074H1050.8v9.525a.819.819,0,0,0,.812.812h3.618a.819.819,0,0,0,.812-.812V922.521a.819.819,0,0,0-.812-.812h-3.618a.819.819,0,0,0-.812.812Z" transform="translate(-142.466 -22.72)" fill="#fff"/>
    <path id="Tracé_388" data-name="Tracé 388" d="M1122.249,926.656h16.835a.82.82,0,0,0,.812-.812v-3.323a.82.82,0,0,0-.812-.812H1117.6a.819.819,0,0,0-.812.812V946.37a.819.819,0,0,0,.813.812h21.56a.82.82,0,0,0,.813-.812v-3.323a.82.82,0,0,0-.812-.812h-16.909a.159.159,0,0,1-.148-.147V926.878c-.074-.148,0-.222.148-.222" transform="translate(-192.798 -22.72)" fill="#fff"/>
    <path id="Tracé_389" data-name="Tracé 389" d="M1154.346,954.574V951.4a.819.819,0,0,0-.812-.812h-9.156a.775.775,0,0,0-.664.369l-2.732,3.84a.446.446,0,0,0,.074.591.271.271,0,0,0,.222.074h12.257a.886.886,0,0,0,.812-.886" transform="translate(-208.281 -41.261)" fill="#fff"/>
    <path id="Tracé_390" data-name="Tracé 390" d="M1510.024,937.51,1499.1,923.038a.832.832,0,0,1,.148-1.182,1.066,1.066,0,0,1,.517-.148h4.43a.776.776,0,0,1,.665.369l7.753,10.559a.272.272,0,0,0,.222.074l.074-.074,7.827-10.559a.881.881,0,0,1,.665-.369h4.43a.819.819,0,0,1,.812.812,1.37,1.37,0,0,1-.148.517l-10.854,14.472v8.86a.819.819,0,0,1-.812.812h-3.913a.819.819,0,0,1-.812-.812v-8.786l-.074-.074" transform="translate(-438.141 -22.72)" fill="#fff"/>
    <path id="Tracé_391" data-name="Tracé 391" d="M1432.72,945.662l-14.4-23.923a.813.813,0,0,0-.739-.443H1411.9a.908.908,0,0,0-.738.37l-14.472,23.923a.869.869,0,0,0,.3,1.182,1.053,1.053,0,0,0,.443.147h4.061a.812.812,0,0,0,.739-.443l12.183-20.379a.271.271,0,0,1,.221-.074.072.072,0,0,1,.074.074l6.2,10.337h-8.491a.813.813,0,0,0-.739.443l-2.289,3.839a.4.4,0,0,0,.148.591.271.271,0,0,0,.222.074h14.029l3.1,5.243a.98.98,0,0,0,.739.443h4.356a.944.944,0,0,0,.886-.812,1.142,1.142,0,0,0-.148-.591" transform="translate(-372.429 -22.455)" fill="#fff"/>
    <path id="Tracé_392" data-name="Tracé 392" d="M1232.511,934.277c0,4.578-2.88,7.679-7.753,7.679h-8.86a.159.159,0,0,1-.148-.148V926.745a.159.159,0,0,1,.148-.148h8.86C1229.631,926.6,1232.511,929.7,1232.511,934.277Zm-7.088-12.774h-14.177a.819.819,0,0,0-.812.812v23.85a.819.819,0,0,0,.812.812h14.177c8.565,0,12.4-6.719,12.4-12.774s-3.766-12.7-12.4-12.7" transform="translate(-252.924 -22.588)" fill="#fff"/>
    <path id="Tracé_393" data-name="Tracé 393" d="M1329.847,935.369h-5.316a.776.776,0,0,0-.664.369l-2.806,3.913a.4.4,0,0,0,.147.591.271.271,0,0,0,.222.074h8.787c6.571,0,9.451-4.5,9.451-9.377s-2.732-9.23-9.451-9.23h-17.278a.819.819,0,0,0-.812.812V946.37a.819.819,0,0,0,.812.812h3.618a.819.819,0,0,0,.812-.812V926.878a.159.159,0,0,1,.148-.148h12.33c3.84,0,4.431,2.806,4.431,4.135s-.369,4.5-4.431,4.5" transform="translate(-318.215 -22.72)" fill="#fff"/>
  </g>
</svg>
