<svg xmlns="http://www.w3.org/2000/svg" width="23.384" height="18.188" viewBox="0 0 23.384 18.188">
  <path id="FontAwsome_cc-mastercard_" data-name="FontAwsome (cc-mastercard)" d="M19.6,48.317a.455.455,0,1,1-.455-.475A.454.454,0,0,1,19.6,48.317ZM6.987,47.842a.476.476,0,1,0,.443.475A.449.449,0,0,0,6.987,47.842Zm4.77-.012a.376.376,0,0,0-.386.353h.775A.373.373,0,0,0,11.757,47.83Zm4.376.012a.475.475,0,1,0,.455.475A.449.449,0,0,0,16.133,47.842Zm4.3,1.06c0,.012.012.02.012.045s-.012.02-.012.045a.142.142,0,0,0-.02.032.052.052,0,0,1-.045.02c-.012.012-.02.012-.045.012a.08.08,0,0,1-.045-.012c-.012,0-.02-.012-.032-.02s-.02-.02-.02-.032a.074.074,0,0,1-.012-.045c0-.02,0-.032.012-.045a.076.076,0,0,1,.02-.045.142.142,0,0,1,.032-.02.074.074,0,0,1,.045-.012c.02,0,.032,0,.045.012s.032.012.045.02S20.42,48.882,20.433,48.9Zm-.089.057c.02,0,.02-.012.032-.012a.049.049,0,0,0,0-.065c-.012,0-.02-.012-.045-.012h-.065v.142H20.3v-.057h.012l.045.057h.032l-.045-.053Zm3.041-14.01v14.29a1.949,1.949,0,0,1-1.949,1.949H1.949A1.949,1.949,0,0,1,0,49.239V34.949A1.949,1.949,0,0,1,1.949,33H21.435A1.949,1.949,0,0,1,23.384,34.949ZM2.6,40.616A5.62,5.62,0,0,0,11.327,45.3a6.054,6.054,0,0,1,0-9.358A5.62,5.62,0,0,0,2.6,40.616Zm9.094,4.417a5.621,5.621,0,0,0,0-8.83A5.621,5.621,0,0,0,11.692,45.033Zm-5.777,3.1a.569.569,0,0,0-.6-.6.58.58,0,0,0-.52.264.538.538,0,0,0-.5-.264.515.515,0,0,0-.43.219v-.179H3.54v1.49h.333c0-.767-.1-1.226.365-1.226.414,0,.333.414.333,1.226h.321c0-.743-.1-1.226.365-1.226.414,0,.333.406.333,1.226h.333v-.934Zm1.823-.556H7.417v.179a.585.585,0,0,0-.475-.219.785.785,0,0,0,0,1.567.563.563,0,0,0,.475-.219v.187h.321Zm1.644,1.039c0-.609-.93-.333-.93-.617,0-.231.483-.195.751-.045l.134-.264c-.382-.248-1.226-.244-1.226.333s.93.337.93.609c0,.256-.548.235-.84.032l-.142.256C8.513,49.227,9.382,49.162,9.382,48.614Zm1.437.378-.089-.276c-.154.085-.5.179-.5-.166v-.674h.532v-.3h-.532V47.12H9.9v.455H9.593v.3H9.9v.678c0,.715.7.585.917.443Zm.54-.544h1.116c0-.658-.3-.917-.706-.917a.731.731,0,0,0-.739.784.81.81,0,0,0,1.372.576l-.154-.244C11.932,48.906,11.452,48.882,11.359,48.447Zm2.4-.873a.476.476,0,0,0-.617.179v-.179h-.333v1.49h.333v-.84a.339.339,0,0,1,.52-.341l.1-.309Zm.43.743c0-.463.471-.613.84-.341l.154-.264a.8.8,0,1,0,0,1.218l-.154-.264C14.656,48.93,14.189,48.772,14.189,48.317Zm2.708-.743h-.333v.179a.738.738,0,1,0,0,1.129v.187H16.9Zm1.368,0a.488.488,0,0,0-.617.179v-.179h-.321v1.49h.321v-.84a.341.341,0,0,1,.52-.341Zm1.636-.6H19.58v.784a.738.738,0,1,0,0,1.129v.187H19.9Zm.309-3.049v.187h.032v-.187h.077v-.032h-.187v.032h.077Zm.268,5.026a.124.124,0,0,0-.012-.065c-.012-.012-.02-.032-.032-.045s-.032-.02-.045-.032-.045-.012-.065-.012a.431.431,0,0,1-.057.012.212.212,0,0,0-.045.032.064.064,0,0,0-.032.045.124.124,0,0,0-.012.065.118.118,0,0,0,.012.057.064.064,0,0,0,.032.045.141.141,0,0,0,.045.032.11.11,0,0,0,.057.012.124.124,0,0,0,.065-.012c.012-.012.032-.02.045-.032s.02-.032.032-.045A.118.118,0,0,0,20.477,48.947Zm.13-5.062H20.55l-.065.142-.065-.142h-.057V44.1H20.4v-.166l.065.142h.045l.057-.142V44.1h.045Zm.179-3.268a5.62,5.62,0,0,0-8.728-4.677,6.054,6.054,0,0,1,0,9.358,5.62,5.62,0,0,0,8.728-4.681Z" transform="translate(0 -33)" fill="#dbe3eb"/>
</svg>
