<svg xmlns="http://www.w3.org/2000/svg" width="16" height="16" viewBox="0 0 16 16">
  <path id="FontAwsome_My_account_" data-name="FontAwsome (My account)" d="M8,8a8,8,0,1,0,8,8A8,8,0,0,0,8,8Zm0,3.1a2.839,2.839,0,1,1-2.839,2.839A2.839,2.839,0,0,1,8,11.1Zm0,11.1a6.182,6.182,0,0,1-4.726-2.2,3.6,3.6,0,0,1,3.177-1.929.789.789,0,0,1,.229.035A4.271,4.271,0,0,0,8,18.323,4.255,4.255,0,0,0,9.319,18.1a.789.789,0,0,1,.229-.035,3.6,3.6,0,0,1,3.177,1.929A6.182,6.182,0,0,1,8,22.194Z" transform="translate(0 -8)" fill="#fff"/>
</svg>
