<svg xmlns="http://www.w3.org/2000/svg" width="15.75" height="14.7" viewBox="0 0 15.75 14.7">
  <path id="FontAwsome_my_saved_bank_accounts_" data-name="FontAwsome (my saved bank accounts)" d="M31.75,35.15v.525a.262.262,0,0,1-.262.262H30.7v.394a.394.394,0,0,1-.394.394H17.444a.394.394,0,0,1-.394-.394v-.394h-.787A.262.262,0,0,1,16,35.675V35.15a.263.263,0,0,1,.162-.243l7.612-2.887a.262.262,0,0,1,.2,0l7.612,2.887A.263.263,0,0,1,31.75,35.15Zm-.787,9.975H16.787a.787.787,0,0,0-.787.787v.525a.262.262,0,0,0,.262.262H31.487a.262.262,0,0,0,.262-.262v-.525A.787.787,0,0,0,30.962,45.125ZM18.625,37.25v6.3H17.444a.394.394,0,0,0-.394.394V44.6H30.7v-.656a.394.394,0,0,0-.394-.394H29.125v-6.3h-2.1v6.3h-2.1v-6.3h-2.1v6.3h-2.1v-6.3Z" transform="translate(-16 -32)" fill="#fff"/>
</svg>
