<svg width="26" height="33" viewBox="0 0 26 33" fill="none" xmlns="http://www.w3.org/2000/svg">
<path fill-rule="evenodd" clip-rule="evenodd" d="M3.80761 3.80761C6.24558 1.36964 9.55219 0 13 0C16.4478 0 19.7544 1.36964 22.1924 3.80761C24.6304 6.24558 26 9.55219 26 13C26 16.0745 25.3468 18.0863 23.5625 20.3125L13 32.5L2.4375 20.3125C0.65325 18.0863 0 16.0745 0 13C0 9.55219 1.36964 6.24558 3.80761 3.80761ZM17.875 13C17.875 15.6924 15.6924 17.875 13 17.875C10.3076 17.875 8.125 15.6924 8.125 13C8.125 10.3076 10.3076 8.125 13 8.125C15.6924 8.125 17.875 10.3076 17.875 13Z" fill="#333333"/>
</svg>
