<svg width="36" height="27" viewBox="0 0 36 27" fill="none" xmlns="http://www.w3.org/2000/svg">
<path d="M15.75 19.0547C15.75 19.6992 15.5654 20.2471 15.1963 20.6982C14.8271 21.1494 14.3848 21.375 13.8691 21.375H6.38086C5.86523 21.375 5.42285 21.1494 5.05371 20.6982C4.68457 20.2471 4.5 19.6992 4.5 19.0547C4.5 18.4219 4.54395 17.833 4.63184 17.2881C4.71973 16.7432 4.86328 16.2158 5.0625 15.7061C5.26172 15.1963 5.56055 14.7949 5.95898 14.502C6.35742 14.209 6.83203 14.0625 7.38281 14.0625C8.13281 14.8125 9.04688 15.1875 10.125 15.1875C11.2031 15.1875 12.1172 14.8125 12.8672 14.0625C13.418 14.0625 13.8926 14.209 14.291 14.502C14.6895 14.7949 14.9883 15.1963 15.1875 15.7061C15.3867 16.2158 15.5303 16.7432 15.6182 17.2881C15.7061 17.833 15.75 18.4219 15.75 19.0547ZM13.5 11.25C13.5 12.1875 13.1719 12.9844 12.5156 13.6406C11.8594 14.2969 11.0625 14.625 10.125 14.625C9.1875 14.625 8.39062 14.2969 7.73438 13.6406C7.07812 12.9844 6.75 12.1875 6.75 11.25C6.75 10.3125 7.07812 9.51562 7.73438 8.85938C8.39062 8.20312 9.1875 7.875 10.125 7.875C11.0625 7.875 11.8594 8.20312 12.5156 8.85938C13.1719 9.51562 13.5 10.3125 13.5 11.25ZM31.5 18.5625V19.6875C31.5 19.8516 31.4473 19.9863 31.3418 20.0918C31.2363 20.1973 31.1016 20.25 30.9375 20.25H18.5625C18.3984 20.25 18.2637 20.1973 18.1582 20.0918C18.0527 19.9863 18 19.8516 18 19.6875V18.5625C18 18.3984 18.0527 18.2637 18.1582 18.1582C18.2637 18.0527 18.3984 18 18.5625 18H30.9375C31.1016 18 31.2363 18.0527 31.3418 18.1582C31.4473 18.2637 31.5 18.3984 31.5 18.5625ZM24.75 14.0625V15.1875C24.75 15.3516 24.6973 15.4863 24.5918 15.5918C24.4863 15.6973 24.3516 15.75 24.1875 15.75H18.5625C18.3984 15.75 18.2637 15.6973 18.1582 15.5918C18.0527 15.4863 18 15.3516 18 15.1875V14.0625C18 13.8984 18.0527 13.7637 18.1582 13.6582C18.2637 13.5527 18.3984 13.5 18.5625 13.5H24.1875C24.3516 13.5 24.4863 13.5527 24.5918 13.6582C24.6973 13.7637 24.75 13.8984 24.75 14.0625ZM31.5 14.0625V15.1875C31.5 15.3516 31.4473 15.4863 31.3418 15.5918C31.2363 15.6973 31.1016 15.75 30.9375 15.75H27.5625C27.3984 15.75 27.2637 15.6973 27.1582 15.5918C27.0527 15.4863 27 15.3516 27 15.1875V14.0625C27 13.8984 27.0527 13.7637 27.1582 13.6582C27.2637 13.5527 27.3984 13.5 27.5625 13.5H30.9375C31.1016 13.5 31.2363 13.5527 31.3418 13.6582C31.4473 13.7637 31.5 13.8984 31.5 14.0625ZM31.5 9.5625V10.6875C31.5 10.8516 31.4473 10.9863 31.3418 11.0918C31.2363 11.1973 31.1016 11.25 30.9375 11.25H18.5625C18.3984 11.25 18.2637 11.1973 18.1582 11.0918C18.0527 10.9863 18 10.8516 18 10.6875V9.5625C18 9.39844 18.0527 9.26367 18.1582 9.1582C18.2637 9.05273 18.3984 9 18.5625 9H30.9375C31.1016 9 31.2363 9.05273 31.3418 9.1582C31.4473 9.26367 31.5 9.39844 31.5 9.5625ZM33.75 24.1875V4.5H2.25V24.1875C2.25 24.3398 2.30566 24.4717 2.41699 24.583C2.52832 24.6943 2.66016 24.75 2.8125 24.75H33.1875C33.3398 24.75 33.4717 24.6943 33.583 24.583C33.6943 24.4717 33.75 24.3398 33.75 24.1875ZM36 2.8125V24.1875C36 24.9609 35.7246 25.623 35.1738 26.1738C34.623 26.7246 33.9609 27 33.1875 27H2.8125C2.03906 27 1.37695 26.7246 0.826172 26.1738C0.275391 25.623 0 24.9609 0 24.1875V2.8125C0 2.03906 0.275391 1.37695 0.826172 0.826172C1.37695 0.275391 2.03906 0 2.8125 0H33.1875C33.9609 0 34.623 0.275391 35.1738 0.826172C35.7246 1.37695 36 2.03906 36 2.8125Z" fill="#333333"/>
</svg>
