<svg xmlns="http://www.w3.org/2000/svg" width="11.733" height="11.733" viewBox="0 0 11.733 11.733">
  <path id="FontAwsome_question-circle_" data-name="FontAwsome (question-circle)" d="M19.733,13.867A5.867,5.867,0,1,1,13.867,8,5.866,5.866,0,0,1,19.733,13.867ZM14.024,9.94a3.064,3.064,0,0,0-2.757,1.508.284.284,0,0,0,.064.385l.821.622a.284.284,0,0,0,.394-.05c.423-.536.712-.847,1.356-.847.483,0,1.081.311,1.081.78,0,.354-.292.536-.77.8-.556.312-1.293.7-1.293,1.672v.095a.284.284,0,0,0,.284.284h1.325a.284.284,0,0,0,.284-.284v-.032c0-.673,1.968-.7,1.968-2.523A2.7,2.7,0,0,0,14.024,9.94Zm-.157,5.867a1.088,1.088,0,1,0,1.088,1.088A1.089,1.089,0,0,0,13.867,15.806Z" transform="translate(-8 -8)" fill="#2dccd3"/>
</svg>
