<svg width="18" height="18" viewBox="0 0 18 18" fill="none" xmlns="http://www.w3.org/2000/svg">
<path d="M11.113 8.99744L17.5567 2.56866C17.8389 2.28647 17.9974 1.90375 17.9974 1.50468C17.9974 1.10562 17.8389 0.722895 17.5567 0.440712C17.2745 0.158529 16.8918 0 16.4928 0C16.0937 0 15.711 0.158529 15.4288 0.440712L9 6.88448L2.57121 0.440712C2.28903 0.158529 1.90631 -2.97328e-09 1.50724 0C1.10817 2.97328e-09 0.725452 0.158529 0.443269 0.440712C0.161086 0.722895 0.00255743 1.10562 0.00255743 1.50468C0.00255743 1.90375 0.161086 2.28647 0.443269 2.56866L6.88704 8.99744L0.443269 15.4262C0.302812 15.5655 0.191329 15.7313 0.115249 15.9139C0.0391699 16.0965 0 16.2924 0 16.4902C0 16.688 0.0391699 16.8839 0.115249 17.0665C0.191329 17.2491 0.302812 17.4149 0.443269 17.5542C0.582579 17.6946 0.74832 17.8061 0.930933 17.8822C1.11355 17.9583 1.30941 17.9974 1.50724 17.9974C1.70507 17.9974 1.90094 17.9583 2.08355 17.8822C2.26616 17.8061 2.4319 17.6946 2.57121 17.5542L9 11.1104L15.4288 17.5542C15.5681 17.6946 15.7338 17.8061 15.9165 17.8822C16.0991 17.9583 16.2949 17.9974 16.4928 17.9974C16.6906 17.9974 16.8865 17.9583 17.0691 17.8822C17.2517 17.8061 17.4174 17.6946 17.5567 17.5542C17.6972 17.4149 17.8087 17.2491 17.8848 17.0665C17.9608 16.8839 18 16.688 18 16.4902C18 16.2924 17.9608 16.0965 17.8848 15.9139C17.8087 15.7313 17.6972 15.5655 17.5567 15.4262L11.113 8.99744Z" fill="white"/>
</svg>
