<svg xmlns="http://www.w3.org/2000/svg" width="23.384" height="18.188" viewBox="0 0 23.384 18.188">
  <path id="FontAwsome_cc-visa_" data-name="FontAwsome (cc-visa)" d="M19.085,40.091s.309,1.51.378,1.827H18.106c.134-.361.65-1.766.65-1.766s.134-.369.215-.6l.114.544Zm4.3-6.142v14.29a1.949,1.949,0,0,1-1.949,1.949H1.949A1.949,1.949,0,0,1,0,48.239V33.949A1.949,1.949,0,0,1,1.949,32H21.435A1.949,1.949,0,0,1,23.384,33.949ZM6.191,44.147l2.566-6.3H7.031l-1.6,4.3-.175-.873-.568-2.9a.679.679,0,0,0-.739-.532H1.328l-.028.126a6.442,6.442,0,0,1,1.713.694l1.453,5.481Zm3.832.008,1.023-6.309H9.415L8.4,44.155h1.628Zm5.68-2.062c.008-.719-.43-1.267-1.368-1.717-.572-.288-.922-.483-.922-.779.008-.268.3-.544.938-.544a2.8,2.8,0,0,1,1.214.24l.146.069L15.934,38a4.054,4.054,0,0,0-1.462-.268c-1.612,0-2.744.861-2.752,2.087-.012.905.812,1.409,1.429,1.713s.844.512.844.784c-.008.422-.512.617-.978.617a3.252,3.252,0,0,1-1.531-.337l-.215-.1-.227,1.417a4.981,4.981,0,0,0,1.819.337c1.713,0,2.83-.844,2.842-2.152Zm5.732,2.062L20.12,37.846H18.857A.8.8,0,0,0,18,38.37l-2.424,5.785h1.713s.28-.779.341-.946H19.73c.049.223.195.946.195.946Z" transform="translate(0 -32)" fill="#002554"/>
</svg>
