<?xml version="1.0" encoding="utf-8"?>
<!-- Generator: Adobe Illustrator 25.2.1, SVG Export Plug-In . SVG Version: 6.00 Build 0)  -->
<svg version="1.1" id="Calque_1" xmlns="http://www.w3.org/2000/svg" xmlns:xlink="http://www.w3.org/1999/xlink" x="0px" y="0px"
	 viewBox="0 0 128 128" style="enable-background:new 0 0 128 128;" xml:space="preserve">
<style type="text/css">
	.st0{fill:#08253E;}
	.st1{fill:#2DCCD3;}
</style>
<path class="st0" d="M15,84.9V43.8c0-0.5,0.3-1,1-1h32.7c0.5,0,1.1-0.3,1.5-0.7L77.4,9.4c0.3-0.3,0.3-1-0.2-1.3
	C77.1,8,76.9,8,76.6,8H62.8c-1.1,0-2.1,0.5-2.9,1.3L45,27.3c-0.2,0.2-0.5,0.3-0.7,0.3h-39c-3.1,0-5.6,2.5-5.6,5.6l0,0v62.4
	c0,3.1,2.5,5.6,5.6,5.6h45.7c1.1,0,2.1-0.5,2.8-1.3l10.3-12.4c0.3-0.3,0.3-1-0.2-1.3c-0.2-0.2-0.3-0.2-0.7-0.2H15.9
	C15.4,85.9,15,85.4,15,84.9L15,84.9"/>
<path class="st1" d="M128,95.6V33.2c0-3.1-2.5-5.6-5.6-5.6H76.8c-1.1,0-2.1,0.5-2.8,1.3L63.7,41.4c-0.3,0.3-0.3,1,0.2,1.3
	c0.2,0.2,0.3,0.2,0.7,0.2H112c0.5,0,1,0.5,1,1v41.1c0,0.5-0.5,1-1,1H79.2c-0.5,0-1.1,0.3-1.5,0.7l-27.2,32.7
	c-0.5,0.3-0.5,0.8-0.2,1.3c0.2,0.3,0.5,0.3,0.8,0.3H65c1.1,0,2.1-0.5,2.8-1.3l15.1-18c0.2-0.2,0.5-0.3,0.7-0.3h39
	C125.5,101.3,128,98.8,128,95.6C128,95.7,128,95.7,128,95.6"/>
</svg>
